<svg width="14" height="14" viewBox="0 0 14 14" fill="none" xmlns="http://www.w3.org/2000/svg">
<path d="M8.6 5.4C9.9 5.4 10.7 3.5 10.7 2.3C10.7 1.3 10.2 0.0999999 9.2 0.0999999C7.9 0.0999999 7.1 2 7.1 3.2C7.1 4.2 7.6 5.4 8.6 5.4ZM4.8 5.4C5.8 5.4 6.3 4.2 6.3 3.2C6.3 1.9 5.5 0 4.2 0C3.2 0 2.7 1.2 2.7 2.2C2.6 3.5 3.4 5.4 4.8 5.4ZM12.2 4.4C10.9 4.4 10 6.2 10 7.5C10 8.4 10.4 9.3 11.3 9.3C12.6 9.3 13.5 7.5 13.5 6.2C13.5 5.3 13 4.4 12.2 4.4ZM3.5 7.5C3.5 6.2 2.5 4.4 1.3 4.4C0.4 4.4 0 5.3 0 6.2C0 7.5 1 9.3 2.2 9.3C3.1 9.3 3.5 8.4 3.5 7.5ZM6.7 7.3C4.7 7.3 2 10.5 2 12.7C2 13.7 2.7 14 3.5 14C4.7 14 5.6 13.2 6.7 13.2C7.7 13.2 8.6 14 9.7 14C10.5 14 11.4 13.8 11.4 12.7C11.4 10.5 8.7 7.3 6.7 7.3Z" fill="#001F54"/>
</svg>
